<svg width="40" height="26" viewBox="0 0 40 26" fill="none" xmlns="http://www.w3.org/2000/svg">
<g clip-path="url(#clip0_2365_66541)">
<path d="M0 0V25.4867H40V0H0ZM38.9381 24.6018H1.06195V0.884956H38.9381V24.6018Z" fill="white"/>
<path d="M28.1735 9.70983C27.6991 9.57532 27.5186 9.55762 26.4035 9.55762H24.0708V9.71691H24.9912V15.7169H24.0708V15.8797H26.5487C27.7133 15.8797 28.1982 15.8054 28.7469 15.5258C29.7735 14.9842 30.4035 13.9045 30.3611 12.7435C30.4177 11.3488 29.515 10.0957 28.1735 9.70983ZM28.8248 14.7966C28.3894 15.3452 27.7345 15.6709 27.0336 15.6886C26.6655 15.7169 26.2938 15.7275 25.9257 15.7169V9.72045C26.4637 9.68505 27.0018 9.72399 27.5257 9.84434C28.7115 10.1665 29.3274 11.1328 29.3274 12.6762C29.3699 13.416 29.1965 14.1558 28.8248 14.7966Z" fill="white"/>
<path d="M22.6549 14.4248L22.0992 13.8691C22.3222 13.4691 22.4461 13.0195 22.4531 12.5629C22.4531 12.5169 22.4531 12.4284 22.3434 12.4284H22.2054C22.1169 12.4284 22.0708 12.4284 22.0708 12.5629C22.0708 12.9204 21.993 13.2744 21.8372 13.5965L20.885 12.6372C21.239 12.4284 21.7452 12.039 21.7452 11.5222C21.7487 11.0266 21.3523 10.6195 20.8531 10.616C20.8213 10.616 20.7859 10.616 20.754 10.6195C20.2301 10.577 19.77 10.9699 19.731 11.4938C19.731 11.5151 19.731 11.5399 19.731 11.5611C19.7416 11.8868 19.8903 12.1947 20.1381 12.4071L20.2762 12.5593C19.8124 12.7753 19.5045 13.2284 19.4726 13.7416C19.4585 14.3151 19.9151 14.793 20.4885 14.8071C20.5239 14.8071 20.5593 14.8071 20.5947 14.8071C21.0832 14.8071 21.5469 14.5983 21.862 14.2266L22.354 14.7363C22.4071 14.8036 22.5062 14.8142 22.5735 14.7611C22.5841 14.754 22.5912 14.7434 22.5983 14.7363L22.6691 14.6726C22.7823 14.5629 22.7363 14.5169 22.6585 14.4284L22.6549 14.4248ZM20.1062 11.593C20.1169 11.2567 20.3965 10.9912 20.7328 11.0018C21.0372 11.0089 21.2885 11.2425 21.3204 11.5469C21.3204 11.9646 20.8673 12.2266 20.6124 12.3823L20.485 12.2549C20.2655 12.0956 20.131 11.8478 20.1133 11.5788L20.1062 11.593ZM20.5947 14.4602C20.2054 14.4744 19.8762 14.1699 19.862 13.777C19.862 13.7699 19.862 13.7593 19.862 13.7522C19.908 13.3487 20.1593 12.9983 20.531 12.8284L21.593 13.954C21.3558 14.262 20.9912 14.4425 20.6018 14.4496L20.5947 14.4602Z" fill="white"/>
<path d="M16.7645 9.55762H18.6407V9.68151H17.8513L15.5752 15.9293H15.3557L13.8761 11.7842L12.3716 15.9293H12.1522L10.6442 11.7169L10.2265 10.5877L9.89729 9.67443H9.15393V9.55762H11.784V9.68151H10.8283L12.6336 14.7647L13.7805 11.5789L13.4265 10.5806L13.0973 9.67443H12.361V9.55762H14.9911V9.68151H14.0353L15.8407 14.7647L17.6991 9.67443H16.7645V9.55762Z" fill="white"/>
</g>
<defs>
<clipPath id="clip0_2365_66541">
<rect width="40" height="25.4867" fill="white"/>
</clipPath>
</defs>
</svg>
